<mxfile host="Electron" agent="Mozilla/5.0 (Windows NT 10.0; Win64; x64) AppleWebKit/537.36 (KHTML, like Gecko) draw.io/28.0.6 Chrome/138.0.7204.100 Electron/37.2.3 Safari/537.36" version="28.0.6">
  <diagram name="Page-1" id="CRw7Qy09XI9AGr-LJ2f7">
    <mxGraphModel dx="1892" dy="1726" grid="1" gridSize="10" guides="1" tooltips="1" connect="1" arrows="1" fold="1" page="1" pageScale="1" pageWidth="850" pageHeight="1100" math="0" shadow="0">
      <root>
        <mxCell id="0" />
        <mxCell id="1" parent="0" />
        <mxCell id="xUMv_lUlXNm9LR2b7dol-43" style="edgeStyle=orthogonalEdgeStyle;rounded=0;orthogonalLoop=1;jettySize=auto;html=1;entryX=0;entryY=0.25;entryDx=0;entryDy=0;" parent="1" source="xUMv_lUlXNm9LR2b7dol-11" target="xUMv_lUlXNm9LR2b7dol-39" edge="1">
          <mxGeometry relative="1" as="geometry" />
        </mxCell>
        <mxCell id="xUMv_lUlXNm9LR2b7dol-11" value="prd_key" style="rounded=0;whiteSpace=wrap;html=1;fontSize=15;" parent="1" vertex="1">
          <mxGeometry x="320" y="180" width="140" height="40" as="geometry" />
        </mxCell>
        <mxCell id="xUMv_lUlXNm9LR2b7dol-17" value="crm_sales_details" style="swimlane;fontStyle=0;childLayout=stackLayout;horizontal=1;startSize=26;fillColor=none;horizontalStack=0;resizeParent=1;resizeParentMax=0;resizeLast=0;collapsible=1;marginBottom=0;html=1;fontSize=15;" parent="1" vertex="1">
          <mxGeometry x="40" y="240" width="140" height="78" as="geometry">
            <mxRectangle x="40" y="240" width="160" height="30" as="alternateBounds" />
          </mxGeometry>
        </mxCell>
        <mxCell id="xUMv_lUlXNm9LR2b7dol-18" value="prd_key" style="text;strokeColor=none;fillColor=none;align=left;verticalAlign=top;spacingLeft=4;spacingRight=4;overflow=hidden;rotatable=0;points=[[0,0.5],[1,0.5]];portConstraint=eastwest;whiteSpace=wrap;html=1;fontSize=15;" parent="xUMv_lUlXNm9LR2b7dol-17" vertex="1">
          <mxGeometry y="26" width="140" height="26" as="geometry" />
        </mxCell>
        <mxCell id="xUMv_lUlXNm9LR2b7dol-20" value="cust_id" style="text;strokeColor=none;fillColor=none;align=left;verticalAlign=top;spacingLeft=4;spacingRight=4;overflow=hidden;rotatable=0;points=[[0,0.5],[1,0.5]];portConstraint=eastwest;whiteSpace=wrap;html=1;fontSize=15;" parent="xUMv_lUlXNm9LR2b7dol-17" vertex="1">
          <mxGeometry y="52" width="140" height="26" as="geometry" />
        </mxCell>
        <mxCell id="xUMv_lUlXNm9LR2b7dol-21" value="crm_prd_info" style="rounded=0;whiteSpace=wrap;html=1;strokeColor=none;fontSize=15;" parent="1" vertex="1">
          <mxGeometry x="330" y="160" width="120" height="30" as="geometry" />
        </mxCell>
        <mxCell id="xUMv_lUlXNm9LR2b7dol-37" style="edgeStyle=orthogonalEdgeStyle;rounded=0;orthogonalLoop=1;jettySize=auto;html=1;entryX=0;entryY=0.5;entryDx=0;entryDy=0;" parent="1" source="xUMv_lUlXNm9LR2b7dol-23" target="xUMv_lUlXNm9LR2b7dol-35" edge="1">
          <mxGeometry relative="1" as="geometry" />
        </mxCell>
        <mxCell id="xUMv_lUlXNm9LR2b7dol-38" style="edgeStyle=orthogonalEdgeStyle;rounded=0;orthogonalLoop=1;jettySize=auto;html=1;entryX=0;entryY=0.5;entryDx=0;entryDy=0;" parent="1" source="xUMv_lUlXNm9LR2b7dol-23" target="xUMv_lUlXNm9LR2b7dol-33" edge="1">
          <mxGeometry relative="1" as="geometry" />
        </mxCell>
        <mxCell id="xUMv_lUlXNm9LR2b7dol-23" value="cst_id , cst_key" style="rounded=0;whiteSpace=wrap;html=1;fontSize=15;" parent="1" vertex="1">
          <mxGeometry x="317" y="310" width="150" height="40" as="geometry" />
        </mxCell>
        <mxCell id="xUMv_lUlXNm9LR2b7dol-25" value="crm_cust_info" style="rounded=0;whiteSpace=wrap;html=1;strokeColor=none;fontSize=15;" parent="1" vertex="1">
          <mxGeometry x="330" y="290" width="130" height="30" as="geometry" />
        </mxCell>
        <mxCell id="xUMv_lUlXNm9LR2b7dol-26" style="edgeStyle=orthogonalEdgeStyle;rounded=0;orthogonalLoop=1;jettySize=auto;html=1;entryX=0;entryY=0.5;entryDx=0;entryDy=0;" parent="1" source="xUMv_lUlXNm9LR2b7dol-18" target="xUMv_lUlXNm9LR2b7dol-11" edge="1">
          <mxGeometry relative="1" as="geometry">
            <Array as="points">
              <mxPoint x="250" y="280" />
              <mxPoint x="250" y="200" />
            </Array>
          </mxGeometry>
        </mxCell>
        <mxCell id="xUMv_lUlXNm9LR2b7dol-27" style="edgeStyle=orthogonalEdgeStyle;rounded=0;orthogonalLoop=1;jettySize=auto;html=1;exitX=1;exitY=0.5;exitDx=0;exitDy=0;entryX=0;entryY=0.5;entryDx=0;entryDy=0;" parent="1" source="xUMv_lUlXNm9LR2b7dol-20" target="xUMv_lUlXNm9LR2b7dol-23" edge="1">
          <mxGeometry relative="1" as="geometry" />
        </mxCell>
        <mxCell id="xUMv_lUlXNm9LR2b7dol-32" value="INTEGRATION MODEL (&amp;nbsp;&amp;nbsp;&lt;font size=&quot;1&quot;&gt;how the tables are related&amp;nbsp;&amp;nbsp;&lt;/font&gt;)" style="rounded=0;whiteSpace=wrap;html=1;strokeColor=none;fontSize=18;fontStyle=3" parent="1" vertex="1">
          <mxGeometry x="-110" y="-60" width="490" height="60" as="geometry" />
        </mxCell>
        <mxCell id="xUMv_lUlXNm9LR2b7dol-33" value="CID" style="rounded=0;whiteSpace=wrap;html=1;fontSize=15;" parent="1" vertex="1">
          <mxGeometry x="770" y="430" width="150" height="40" as="geometry" />
        </mxCell>
        <mxCell id="xUMv_lUlXNm9LR2b7dol-34" value="erp_cust_AZ12" style="rounded=0;whiteSpace=wrap;html=1;fontSize=15;strokeColor=none;" parent="1" vertex="1">
          <mxGeometry x="785" y="410" width="120" height="30" as="geometry" />
        </mxCell>
        <mxCell id="xUMv_lUlXNm9LR2b7dol-35" value="CID" style="rounded=0;whiteSpace=wrap;html=1;fontSize=15;" parent="1" vertex="1">
          <mxGeometry x="667.5" y="285" width="150" height="40" as="geometry" />
        </mxCell>
        <mxCell id="xUMv_lUlXNm9LR2b7dol-36" value="erp_LOC_A101" style="rounded=0;whiteSpace=wrap;html=1;strokeColor=none;fontSize=15;" parent="1" vertex="1">
          <mxGeometry x="690" y="260" width="120" height="30" as="geometry" />
        </mxCell>
        <mxCell id="xUMv_lUlXNm9LR2b7dol-39" value="ID" style="rounded=0;whiteSpace=wrap;html=1;fontSize=14;" parent="1" vertex="1">
          <mxGeometry x="627.5" y="130" width="145" height="40" as="geometry" />
        </mxCell>
        <mxCell id="xUMv_lUlXNm9LR2b7dol-42" value="erp_PX_CAT_G1V2" style="rounded=0;whiteSpace=wrap;html=1;fontSize=13;strokeColor=none;" parent="1" vertex="1">
          <mxGeometry x="635" y="110" width="130" height="30" as="geometry" />
        </mxCell>
        <mxCell id="xUMv_lUlXNm9LR2b7dol-45" value="" style="rounded=1;whiteSpace=wrap;html=1;fillColor=none;dashed=1;dashPattern=8 8;" parent="1" vertex="1">
          <mxGeometry y="79" width="520" height="400" as="geometry" />
        </mxCell>
        <mxCell id="xUMv_lUlXNm9LR2b7dol-46" value="" style="rounded=1;whiteSpace=wrap;html=1;fillColor=none;dashed=1;dashPattern=8 8;" parent="1" vertex="1">
          <mxGeometry x="580" y="60" width="390" height="440" as="geometry" />
        </mxCell>
        <mxCell id="xUMv_lUlXNm9LR2b7dol-47" value="CRM" style="rounded=0;whiteSpace=wrap;html=1;fontSize=15;strokeColor=none;" parent="1" vertex="1">
          <mxGeometry x="200" y="60" width="120" height="30" as="geometry" />
        </mxCell>
        <mxCell id="xUMv_lUlXNm9LR2b7dol-48" value="ERP" style="rounded=0;whiteSpace=wrap;html=1;fontSize=15;strokeColor=none;" parent="1" vertex="1">
          <mxGeometry x="715" y="40" width="120" height="30" as="geometry" />
        </mxCell>
        <mxCell id="apf91P7CEuIZ_OIuzAOU-4" value="TRANSACTIONAL RECORD ABOUT SALES AND ORDERS" style="rounded=0;whiteSpace=wrap;html=1;fontStyle=1;strokeColor=#FFFF33;fontColor=#FFFF00;" parent="1" vertex="1">
          <mxGeometry x="20" y="210" width="180" height="30" as="geometry" />
        </mxCell>
        <mxCell id="apf91P7CEuIZ_OIuzAOU-6" value="CURRENT AND HISTORY PRODUCT INFORMATION" style="rounded=0;whiteSpace=wrap;html=1;fontStyle=1;fontColor=#FFFF00;" parent="1" vertex="1">
          <mxGeometry x="305" y="130" width="165" height="30" as="geometry" />
        </mxCell>
        <mxCell id="apf91P7CEuIZ_OIuzAOU-8" value="CUSTOMER INFORMATION" style="rounded=0;whiteSpace=wrap;html=1;fontStyle=1;fontColor=#FFFF00;" parent="1" vertex="1">
          <mxGeometry x="315" y="264" width="150" height="30" as="geometry" />
        </mxCell>
        <mxCell id="apf91P7CEuIZ_OIuzAOU-9" value="PRODUCT CATEGORIES" style="rounded=0;whiteSpace=wrap;html=1;fontStyle=1;fontColor=#FFFF00;" parent="1" vertex="1">
          <mxGeometry x="627.5" y="80" width="150" height="30" as="geometry" />
        </mxCell>
        <mxCell id="apf91P7CEuIZ_OIuzAOU-10" value="EXTRA CUSTOMER INFORMATION (BIRTH DATE)" style="rounded=0;whiteSpace=wrap;html=1;fontStyle=1;fontColor=#FFFF00;" parent="1" vertex="1">
          <mxGeometry x="640" y="220" width="220" height="40" as="geometry" />
        </mxCell>
        <mxCell id="apf91P7CEuIZ_OIuzAOU-12" value="LOCATION OF CUSTOMERS (COUNTRY)" style="rounded=0;whiteSpace=wrap;html=1;fontStyle=1;fontColor=#FFFF00;" parent="1" vertex="1">
          <mxGeometry x="765" y="380" width="160" height="30" as="geometry" />
        </mxCell>
        <mxCell id="apf91P7CEuIZ_OIuzAOU-14" value="PRODUCT" style="text;html=1;strokeColor=#d6b656;fillColor=none;align=center;verticalAlign=middle;whiteSpace=wrap;overflow=hidden;" parent="1" vertex="1">
          <mxGeometry x="342.5" y="220" width="90" height="20" as="geometry" />
        </mxCell>
        <mxCell id="apf91P7CEuIZ_OIuzAOU-15" value="PRODUCT" style="text;html=1;strokeColor=#d6b656;fillColor=none;align=center;verticalAlign=middle;whiteSpace=wrap;overflow=hidden;" parent="1" vertex="1">
          <mxGeometry x="655" y="180" width="90" height="20" as="geometry" />
        </mxCell>
        <mxCell id="apf91P7CEuIZ_OIuzAOU-18" value="CUSTOMERS" style="text;html=1;strokeColor=#d6b656;fillColor=none;align=center;verticalAlign=middle;whiteSpace=wrap;overflow=hidden;" parent="1" vertex="1">
          <mxGeometry x="695" y="330" width="95" height="20" as="geometry" />
        </mxCell>
        <mxCell id="apf91P7CEuIZ_OIuzAOU-19" value="CUSTOMERS" style="text;html=1;strokeColor=#d6b656;fillColor=none;align=center;verticalAlign=middle;whiteSpace=wrap;overflow=hidden;" parent="1" vertex="1">
          <mxGeometry x="800" y="470" width="95" height="20" as="geometry" />
        </mxCell>
        <mxCell id="apf91P7CEuIZ_OIuzAOU-20" value="CUSTOMERS" style="text;html=1;strokeColor=#d6b656;fillColor=none;align=center;verticalAlign=middle;whiteSpace=wrap;overflow=hidden;" parent="1" vertex="1">
          <mxGeometry x="347.5" y="350" width="95" height="20" as="geometry" />
        </mxCell>
        <mxCell id="apf91P7CEuIZ_OIuzAOU-22" value="SALES" style="text;html=1;strokeColor=#d6b656;fillColor=none;align=center;verticalAlign=middle;whiteSpace=wrap;overflow=hidden;" parent="1" vertex="1">
          <mxGeometry x="60" y="318" width="80" height="20" as="geometry" />
        </mxCell>
      </root>
    </mxGraphModel>
  </diagram>
</mxfile>
